<svg version="1.1" id="Layer_1" xmlns="http://www.w3.org/2000/svg" xmlns:xlink="http://www.w3.org/1999/xlink" x="0px" y="0px"
	 width="100%" viewBox="0 0 500 500" enable-background="new 0 0 500 500" xml:space="preserve">
<path fill="#000000" opacity="1.000000" stroke="none" 
	d="
M460.000000,501.000000 
	C306.666718,501.000000 153.833405,501.000000 1.000082,501.000000 
	C1.000055,334.333405 1.000055,167.666824 1.000027,1.000171 
	C167.666550,1.000114 334.333099,1.000114 500.999756,1.000057 
	C500.999817,167.666519 500.999817,334.333038 500.999908,500.999756 
	C487.500000,501.000000 474.000000,501.000000 460.000000,501.000000 
M204.072388,260.563599 
	C204.369522,260.746857 204.666641,260.930115 205.015442,261.575653 
	C205.015442,261.575653 205.177643,262.011658 205.027374,262.858551 
	C205.533691,268.511230 206.039993,274.163910 206.565094,280.026367 
	C207.994354,279.927490 209.388718,279.830994 211.427734,279.689911 
	C210.948242,272.857452 210.494873,266.397003 209.975433,259.446594 
	C209.975433,259.446594 209.802567,258.983429 209.900208,258.462067 
	C209.611816,258.275421 209.323425,258.088776 208.982346,257.430511 
	C208.982346,257.430511 208.811523,256.987823 208.909134,256.469330 
	C208.612152,256.375763 208.315170,256.282227 207.290970,255.845016 
	C202.719833,255.073730 198.148712,254.302460 192.991211,253.432236 
	C192.991211,252.139114 193.310226,249.446152 192.878799,246.879333 
	C192.592331,245.175049 191.161911,242.253281 190.365692,242.293488 
	C187.262100,242.450302 186.719482,245.064255 187.046417,247.759689 
	C187.298126,249.834946 188.007156,251.902008 187.954330,253.958374 
	C187.772736,261.026825 187.485458,268.099304 186.962128,275.149750 
	C186.623932,279.706085 188.715363,280.647552 192.994064,279.639954 
	C192.994064,275.901215 193.235504,272.086334 192.934677,268.314728 
	C192.533127,263.280243 194.264191,259.745514 199.739807,257.973816 
	C200.479584,258.007111 201.219345,258.040375 201.998367,258.007446 
	C201.998367,258.007446 201.932877,258.047821 202.078979,258.551727 
	C202.370483,258.724670 202.661987,258.897644 202.998672,259.005737 
	C202.998672,259.005737 202.932007,259.048218 203.070175,259.559204 
	C203.364471,259.733215 203.658783,259.907257 203.991882,260.009644 
	C203.991882,260.009644 203.920135,260.048218 204.072388,260.563599 
M151.998779,261.001343 
	C151.998779,261.001343 152.037567,261.043060 152.564926,260.908875 
	C152.385864,260.579681 152.206802,260.250519 151.964905,259.464905 
	C151.964905,259.464905 151.795731,259.036377 151.920135,258.508636 
	C151.626923,258.325623 151.333710,258.142609 151.000000,258.000000 
	C151.000000,258.000000 151.042297,257.962616 150.922821,257.446960 
	C150.626831,257.278931 150.330841,257.110901 150.001114,256.998291 
	C150.001114,256.998291 150.056458,256.964417 149.925232,256.449768 
	C149.628403,256.281067 149.331589,256.112366 149.001221,255.998779 
	C149.001221,255.998779 149.053192,255.960541 148.913193,255.435928 
	C148.601730,255.355820 148.290283,255.275711 147.550476,255.033279 
	C147.550476,255.033279 147.096191,254.974487 146.684296,254.219620 
	C143.091156,254.471390 139.498032,254.723160 135.467377,255.034317 
	C135.467377,255.034317 135.058121,255.200027 134.419571,255.132629 
	C133.587845,256.072327 132.756119,257.012024 131.993835,257.994385 
	C131.993835,257.994385 131.951462,257.924744 131.301376,258.175293 
	C130.597504,259.799347 129.893631,261.423401 129.028336,263.667725 
	C128.995590,264.093292 128.962830,264.518890 128.232635,265.283966 
	C128.543457,267.515991 128.854294,269.748047 129.145554,272.656097 
	C130.159637,274.089783 131.173737,275.523438 132.149734,277.600037 
	C132.756363,277.759460 133.363007,277.918854 133.999207,278.011047 
	C133.999207,278.011047 133.935287,278.047211 134.232498,278.753265 
	C140.384918,282.969055 149.097488,281.590485 152.996796,273.285248 
	C151.641815,272.498077 150.268860,271.700470 148.909958,270.911011 
	C144.935440,276.660065 142.876358,277.335052 137.006104,274.996887 
	C137.006104,274.996887 137.073730,274.965302 136.929443,274.441650 
	C136.628296,274.259674 136.327148,274.077667 135.718063,273.207153 
	C134.811783,271.672577 133.377197,270.226776 133.101624,268.586243 
	C132.372589,264.246460 134.418228,261.168884 138.204727,258.923492 
	C142.780151,256.210266 144.951538,260.126709 148.166946,262.680206 
	C149.128922,262.466980 150.090897,262.253754 151.001556,262.000427 
	C151.001556,262.000427 151.036224,262.055481 151.547043,261.923889 
	C151.711609,261.628540 151.876175,261.333160 151.998779,261.001343 
M160.450989,256.086731 
	C160.275696,256.379089 160.100403,256.671478 159.310944,257.187988 
	C158.842239,258.470612 158.373535,259.753235 158.182556,261.670227 
	C159.796432,261.910431 161.775558,264.621979 163.101822,260.361206 
	C164.405457,259.519043 165.709091,258.676910 167.741150,257.980194 
	C168.482285,258.017578 169.223404,258.054932 169.990784,258.019440 
	C169.990784,258.019440 169.919037,258.048615 170.071823,258.560760 
	C170.377594,258.648193 170.683350,258.735596 171.633545,259.116760 
	C174.269150,263.816559 174.139725,264.050934 168.569427,265.014130 
	C166.670639,265.342438 164.762024,265.653595 162.896072,266.124023 
	C159.058990,267.091400 157.122375,270.143158 157.243408,273.573944 
	C157.319595,275.733582 159.184784,279.076263 160.970245,279.653870 
	C164.087204,280.662140 167.761505,279.944824 171.202209,279.956085 
	C172.836243,279.961426 174.756439,279.427551 176.048874,280.098083 
	C179.482101,281.879364 181.517883,280.932281 183.390335,277.148560 
	C177.863480,276.299011 179.240509,272.207428 178.934586,268.699585 
	C178.555511,264.352875 180.782761,259.364563 175.724899,255.249512 
	C171.451691,255.154282 167.178482,255.059052 162.437546,255.013580 
	C162.437546,255.013580 161.997086,255.178604 161.472229,255.076645 
	C161.295029,255.369324 161.117828,255.662018 160.999146,255.997894 
	C160.999146,255.997894 160.956802,255.938721 160.450989,256.086731 
M373.735840,279.999054 
	C374.525421,279.678528 375.315002,279.357971 376.707123,278.999176 
	C377.150665,278.701202 377.594177,278.403229 378.705566,277.817291 
	C378.965057,276.550842 379.224548,275.284363 379.484070,274.017914 
	C378.291046,274.000397 377.098053,273.982849 375.313629,274.170685 
	C374.530151,274.743622 373.746704,275.316559 372.118866,275.998871 
	C370.419342,276.058716 368.719788,276.118591 366.373474,275.902069 
	C364.910126,274.030090 363.446808,272.158112 361.036743,269.075073 
	C368.782410,269.075073 374.798279,269.075073 380.758820,269.075073 
	C381.292816,259.834076 379.884552,256.929779 374.091003,254.613098 
	C368.705048,252.459427 362.165344,254.264038 358.687012,258.863800 
	C354.858246,263.926910 355.156616,271.050293 359.442444,276.898071 
	C361.885773,280.231842 368.123413,281.705078 373.735840,279.999054 
M445.907806,303.837280 
	C446.739349,303.853394 447.572510,303.911652 448.402161,303.879425 
	C463.168182,303.305817 468.826050,298.761322 468.913818,283.258148 
	C468.941162,278.429077 468.953033,273.599915 468.957123,268.770782 
	C468.960358,264.977783 470.798492,263.012268 474.633423,262.945770 
	C475.914825,262.923553 477.194489,262.799835 478.909882,262.696259 
	C478.909882,260.602631 478.780884,258.794128 478.936401,257.010437 
	C479.272064,253.160675 478.701996,250.609528 473.740295,250.911560 
	C470.674377,251.098206 468.670258,249.239349 468.867615,245.529236 
	C469.123779,240.713989 468.931366,235.874222 468.912720,231.045105 
	C468.862854,218.118805 465.386475,212.535065 453.041718,210.440063 
	C444.521240,208.994064 443.070953,209.830017 442.988403,218.219193 
	C442.950592,222.063614 444.405914,223.261307 447.999908,222.957184 
	C451.525513,222.658844 453.175171,224.457825 453.088165,228.025192 
	C452.998840,231.686096 453.179016,235.354111 453.069977,239.013901 
	C452.854248,246.252136 454.292419,252.719177 459.944702,256.049103 
	C457.517761,260.752411 454.305450,264.851715 453.329742,269.427917 
	C452.209259,274.682983 453.023438,280.361023 453.087982,285.854279 
	C453.124908,288.998260 451.982422,290.810303 448.586853,291.122162 
	C446.783142,291.287811 443.514404,292.179443 443.521729,292.707031 
	C443.573181,296.405396 441.136963,300.594849 445.907806,303.837280 
M33.048580,270.707031 
	C33.052811,275.705688 32.804871,280.720490 33.123058,285.699097 
	C33.551598,292.404266 34.973362,299.202759 42.120708,301.723755 
	C47.194057,303.513214 52.863281,303.613312 58.571423,304.515625 
	C58.571423,299.342896 58.571423,295.305237 58.571423,291.276611 
	C46.715721,291.161865 49.082268,288.961761 48.933197,281.151550 
	C48.901402,279.485901 48.846844,277.816193 48.922386,276.153778 
	C49.270802,268.486053 48.444157,261.308868 40.192768,256.908051 
	C46.849922,253.602417 48.642780,248.310104 48.895260,242.268448 
	C49.034252,238.942459 48.843117,235.604050 48.894600,232.272690 
	C49.002129,225.313858 46.938866,222.664871 57.762913,222.782578 
	C58.032646,222.785507 58.305683,222.484604 58.962418,222.099487 
	C58.962418,220.683426 58.954865,219.042831 58.963707,217.402328 
	C59.004761,209.786026 58.554531,209.127426 51.186432,210.202728 
	C39.232586,211.947266 35.092556,213.853287 33.236290,226.864487 
	C32.467422,232.253754 32.834290,237.858475 33.167110,243.335892 
	C33.476185,248.422424 32.087406,251.161179 26.430395,251.124283 
	C21.447420,251.091782 23.394783,255.273102 23.114031,257.877930 
	C22.845686,260.367676 22.584126,263.182220 26.550125,262.965210 
	C31.357147,262.702209 33.728199,264.783844 33.048580,270.707031 
M74.026291,251.738708 
	C74.229439,261.081848 74.432587,270.425018 74.634033,279.689819 
	C76.967102,279.689819 78.355461,279.689819 79.921066,279.689819 
	C79.921066,272.770844 79.921066,266.141479 79.921066,259.512115 
	C82.960464,264.955536 85.807259,270.472778 87.534882,276.320648 
	C88.688133,280.224304 90.666580,280.321167 93.852013,279.696808 
	C96.207581,273.529205 98.569473,267.345032 100.931366,261.160889 
	C101.229401,261.245270 101.527435,261.329681 101.825462,261.414062 
	C102.343216,267.519440 102.860977,273.624817 103.376907,279.708679 
	C104.901924,279.708679 106.294151,279.708679 107.981850,279.708679 
	C107.981850,269.149597 107.963234,258.855652 107.992615,248.561844 
	C108.002052,245.255814 106.130287,244.465775 103.695358,245.869949 
	C101.851135,246.933487 99.953011,248.681610 99.120804,250.581497 
	C96.191628,257.268585 93.711990,264.152527 90.975533,271.183411 
	C87.775879,262.366425 84.797531,254.159256 81.899849,246.174377 
	C74.370392,245.910568 74.370392,245.910568 74.026291,251.738708 
M328.678345,276.154022 
	C325.352356,276.108032 322.013123,276.217773 318.707184,275.936279 
	C317.454102,275.829590 316.277740,274.821350 315.066406,274.224060 
	C316.302856,273.475952 317.457062,272.491150 318.792267,272.027283 
	C321.912231,270.943390 325.520233,270.742981 328.206665,269.041718 
	C333.679169,265.575989 331.481537,260.397583 329.763336,255.711060 
	C330.751038,255.160263 331.412689,254.701691 332.140900,254.408264 
	C333.024567,254.052185 333.964386,253.835464 334.892120,253.554764 
	C333.388794,249.953293 329.500397,248.467682 327.806335,251.231339 
	C325.537018,254.933426 322.492432,254.268463 319.669769,253.914368 
	C312.534729,253.019302 307.764954,259.245880 310.842804,267.582306 
	C311.294159,268.804810 310.821686,270.373871 310.753021,271.781464 
	C310.669189,273.499756 310.583160,275.218567 310.454437,276.933899 
	C310.365936,278.112976 310.515839,279.442291 310.020447,280.435944 
	C307.651886,285.186890 310.083832,290.270325 315.493378,290.901764 
	C318.940460,291.304138 322.534729,291.357849 325.954651,290.845215 
	C330.050842,290.231140 333.165741,287.778442 333.926453,283.431183 
	C334.549957,279.868164 332.131744,278.068176 328.678345,276.154022 
M407.522095,280.984283 
	C409.025604,279.952881 410.529114,278.921509 412.032623,277.890137 
	C411.391876,277.673767 410.751160,277.457397 410.110443,277.241028 
	C409.400604,275.406006 408.345184,273.621521 408.067352,271.723267 
	C407.710541,269.284912 407.764465,266.732727 408.022430,264.269501 
	C408.525360,259.466614 405.899109,255.436264 402.267609,254.441116 
	C398.078827,253.293259 392.670258,252.402191 388.873932,256.683441 
	C387.555054,258.170807 384.634644,259.514374 387.627380,262.036621 
	C390.145264,264.158722 390.823730,262.041992 392.424683,260.445679 
	C393.845642,259.028839 396.756317,258.290649 398.808990,258.596771 
	C400.286469,258.817078 401.434448,261.246735 403.511139,263.562653 
	C398.604248,264.621460 394.975891,264.681305 392.163666,266.226501 
	C389.646393,267.609619 387.030457,270.343903 386.270111,273.000641 
	C385.349731,276.216522 387.201508,279.480560 391.229004,279.987152 
	C393.651825,280.291870 396.152191,279.918243 398.604553,280.066620 
	C401.317047,280.230804 404.014587,280.642944 407.522095,280.984283 
M271.339874,256.058350 
	C266.433838,255.230682 261.527802,254.403015 255.979355,253.466965 
	C255.979355,251.665894 256.217499,248.501541 255.859894,245.406021 
	C255.720596,244.200272 254.239059,243.149597 253.368912,242.028275 
	C252.447968,243.027512 250.790680,243.980942 250.725220,245.033386 
	C250.290070,252.028610 250.131546,259.044037 250.022812,266.055084 
	C249.980988,268.751282 250.823471,271.547729 250.352280,274.132446 
	C249.415512,279.270966 250.391144,280.424835 255.979950,279.297119 
	C255.979950,277.182648 255.979675,275.029694 255.980057,272.876709 
	C255.980438,270.711731 255.863739,268.539001 256.005646,266.383331 
	C256.347565,261.190460 259.491364,257.540039 263.592224,258.074768 
	C268.394104,258.700928 268.893982,262.643707 268.982605,266.495026 
	C269.084869,270.937683 269.006409,275.384491 269.006409,280.077240 
	C270.990204,279.931244 272.388611,279.828308 273.982788,279.710968 
	C273.982788,274.869537 274.227173,270.372589 273.899750,265.917694 
	C273.668396,262.769928 272.662262,259.679138 271.339874,256.058350 
M296.029999,280.969238 
	C297.371002,280.450378 299.066315,280.273254 299.971802,279.334381 
	C301.412964,277.840149 303.693756,274.924957 303.219299,274.215271 
	C301.522308,271.676880 299.623932,273.740387 297.475250,274.728088 
	C295.282349,275.736053 292.106049,275.821899 289.815369,275.016724 
	C287.965454,274.366455 286.792328,271.790741 285.318970,270.069214 
	C288.828552,268.990845 291.309326,268.991638 293.790100,268.990601 
	C296.283417,268.989563 298.782196,268.881927 301.268555,269.012329 
	C304.098175,269.160736 305.127045,267.913330 305.018921,265.163025 
	C304.828735,260.323212 302.793030,256.581970 298.252747,254.891800 
	C293.885223,253.265915 289.288635,252.953400 285.342255,256.213654 
	C280.217834,260.447083 278.751221,266.430542 281.028107,272.937347 
	C282.882843,278.237762 287.669495,280.961823 296.029999,280.969238 
M231.001282,252.458206 
	C230.842941,252.905243 230.819153,253.553711 230.503189,253.764740 
	C229.059555,254.728912 227.533966,255.570358 226.037827,256.455902 
	C227.461792,257.647034 228.885773,258.838165 230.995026,260.602570 
	C230.995026,263.817841 230.546219,268.211273 231.160385,272.450684 
	C231.539658,275.068756 232.945450,278.624084 234.960175,279.642578 
	C237.442703,280.897583 241.057892,280.141724 244.136505,279.813477 
	C244.835663,279.738892 245.341400,277.850159 245.936172,276.796478 
	C244.733200,276.292633 243.214325,275.053406 242.381500,275.411194 
	C238.621796,277.026367 237.341980,274.757416 237.095871,271.977905 
	C236.721237,267.746613 236.997787,263.457672 236.997787,258.813232 
	C240.286530,258.813232 243.035202,258.813232 246.034882,258.813232 
	C245.915421,257.003937 245.823364,255.609756 245.706192,253.835266 
	C242.617264,253.835266 239.871628,253.835266 237.140091,253.835266 
	C237.010834,251.325119 236.902512,249.221680 236.796692,247.166901 
	C233.005966,246.602997 231.057037,247.947845 231.001282,252.458206 
M417.046173,248.955887 
	C417.046173,250.557510 417.046173,252.159119 417.046173,253.843262 
	C415.104126,253.986618 413.683685,254.091461 412.287750,254.194519 
	C412.287750,255.919006 412.287750,257.315918 412.287750,259.099731 
	C413.946716,259.099731 415.342682,259.099731 417.006226,259.099731 
	C417.006226,263.613831 417.004211,267.738892 417.006653,271.863983 
	C417.011230,279.566742 422.759766,283.237091 429.828278,279.867249 
	C430.802704,279.402710 431.195221,277.717468 431.857178,276.597382 
	C430.623413,276.201599 429.411835,275.699036 428.150299,275.436920 
	C426.561462,275.106750 423.601166,275.187988 423.525818,274.721466 
	C422.780121,270.102966 422.157074,265.385040 422.456726,260.757202 
	C422.505707,260.000671 427.218689,259.551392 429.772369,258.944763 
	C430.073792,258.873169 430.351868,258.703613 430.771423,258.523346 
	C430.771423,257.164764 430.771423,255.768250 430.771423,254.010895 
	C428.140442,254.010895 425.704681,254.010895 423.517853,254.010895 
	C422.773102,251.392685 422.139587,249.165543 421.444641,246.722397 
	C419.791595,247.312012 418.589203,247.740891 417.046173,248.955887 
M343.976807,268.620361 
	C344.007996,261.923340 346.017120,257.991150 350.267700,258.486542 
	C354.985565,259.036407 353.785034,256.688538 353.956268,254.698792 
	C349.296265,252.204773 345.022156,256.844635 340.738403,254.173996 
	C340.544006,254.052826 338.177673,256.142639 338.142059,257.245300 
	C337.901306,264.694092 338.016418,272.154388 338.016418,279.552185 
	C342.591125,280.938446 344.026611,278.902222 343.989441,275.045502 
	C343.971802,273.216095 343.980194,271.386444 343.976807,268.620361 
M122.992340,270.463440 
	C122.360802,264.647217 124.514381,258.471375 120.756660,251.870972 
	C119.127663,253.649765 117.200150,254.771484 117.159515,255.957825 
	C116.887848,263.889343 117.018402,271.834686 117.018402,280.031219 
	C119.299561,279.926361 121.030571,279.846802 123.000229,279.756256 
	C123.000229,276.738220 123.000229,274.093079 122.992340,270.463440 
M220.034134,273.487396 
	C217.601929,274.943604 215.567581,276.789398 218.198685,279.462128 
	C219.161072,280.439758 221.570663,280.870422 222.880951,280.379211 
	C224.172211,279.895111 224.907669,277.928345 225.886978,276.612091 
	C224.156967,275.428070 222.426941,274.244049 220.034134,273.487396 
M122.628227,244.148346 
	C119.828819,241.644882 117.398132,243.001694 116.405701,245.642883 
	C115.927856,246.914566 117.364944,249.827499 118.747765,250.682434 
	C121.522194,252.397751 122.993599,250.315018 122.628227,244.148346 
z"/>
<path fill="#3AB9C4" opacity="1.000000" stroke="none" 
	d="
M445.463867,303.796143 
	C441.136963,300.594849 443.573181,296.405396 443.521729,292.707031 
	C443.514404,292.179443 446.783142,291.287811 448.586853,291.122162 
	C451.982422,290.810303 453.124908,288.998260 453.087982,285.854279 
	C453.023438,280.361023 452.209259,274.682983 453.329742,269.427917 
	C454.305450,264.851715 457.517761,260.752411 459.944702,256.049103 
	C454.292419,252.719177 452.854248,246.252136 453.069977,239.013901 
	C453.179016,235.354111 452.998840,231.686096 453.088165,228.025192 
	C453.175171,224.457825 451.525513,222.658844 447.999908,222.957184 
	C444.405914,223.261307 442.950592,222.063614 442.988403,218.219193 
	C443.070953,209.830017 444.521240,208.994064 453.041718,210.440063 
	C465.386475,212.535065 468.862854,218.118805 468.912720,231.045105 
	C468.931366,235.874222 469.123779,240.713989 468.867615,245.529236 
	C468.670258,249.239349 470.674377,251.098206 473.740295,250.911560 
	C478.701996,250.609528 479.272064,253.160675 478.936401,257.010437 
	C478.780884,258.794128 478.909882,260.602631 478.909882,262.696259 
	C477.194489,262.799835 475.914825,262.923553 474.633423,262.945770 
	C470.798492,263.012268 468.960358,264.977783 468.957123,268.770782 
	C468.953033,273.599915 468.941162,278.429077 468.913818,283.258148 
	C468.826050,298.761322 463.168182,303.305817 448.402161,303.879425 
	C447.572510,303.911652 446.739349,303.853394 445.463867,303.796143 
z"/>
<path fill="#3AB9C4" opacity="1.000000" stroke="none" 
	d="
M33.059708,270.236084 
	C33.728199,264.783844 31.357147,262.702209 26.550125,262.965210 
	C22.584126,263.182220 22.845686,260.367676 23.114031,257.877930 
	C23.394783,255.273102 21.447420,251.091782 26.430395,251.124283 
	C32.087406,251.161179 33.476185,248.422424 33.167110,243.335892 
	C32.834290,237.858475 32.467422,232.253754 33.236290,226.864487 
	C35.092556,213.853287 39.232586,211.947266 51.186432,210.202728 
	C58.554531,209.127426 59.004761,209.786026 58.963707,217.402328 
	C58.954865,219.042831 58.962418,220.683426 58.962418,222.099487 
	C58.305683,222.484604 58.032646,222.785507 57.762913,222.782578 
	C46.938866,222.664871 49.002129,225.313858 48.894600,232.272690 
	C48.843117,235.604050 49.034252,238.942459 48.895260,242.268448 
	C48.642780,248.310104 46.849922,253.602417 40.192768,256.908051 
	C48.444157,261.308868 49.270802,268.486053 48.922386,276.153778 
	C48.846844,277.816193 48.901402,279.485901 48.933197,281.151550 
	C49.082268,288.961761 46.715721,291.161865 58.571423,291.276611 
	C58.571423,295.305237 58.571423,299.342896 58.571423,304.515625 
	C52.863281,303.613312 47.194057,303.513214 42.120708,301.723755 
	C34.973362,299.202759 33.551598,292.404266 33.123058,285.699097 
	C32.804871,280.720490 33.052811,275.705688 33.059708,270.236084 
z"/>
<path fill="#FEFDEC" opacity="1.000000" stroke="none" 
	d="
M74.028992,251.269073 
	C74.370392,245.910568 74.370392,245.910568 81.899849,246.174377 
	C84.797531,254.159256 87.775879,262.366425 90.975533,271.183411 
	C93.711990,264.152527 96.191628,257.268585 99.120804,250.581497 
	C99.953011,248.681610 101.851135,246.933487 103.695358,245.869949 
	C106.130287,244.465775 108.002052,245.255814 107.992615,248.561844 
	C107.963234,258.855652 107.981850,269.149597 107.981850,279.708679 
	C106.294151,279.708679 104.901924,279.708679 103.376907,279.708679 
	C102.860977,273.624817 102.343216,267.519440 101.825462,261.414062 
	C101.527435,261.329681 101.229401,261.245270 100.931366,261.160889 
	C98.569473,267.345032 96.207581,273.529205 93.852013,279.696808 
	C90.666580,280.321167 88.688133,280.224304 87.534882,276.320648 
	C85.807259,270.472778 82.960464,264.955536 79.921066,259.512115 
	C79.921066,266.141479 79.921066,272.770844 79.921066,279.689819 
	C78.355461,279.689819 76.967102,279.689819 74.634033,279.689819 
	C74.432587,270.425018 74.229439,261.081848 74.028992,251.269073 
z"/>
<path fill="#FEFDEA" opacity="1.000000" stroke="none" 
	d="
M328.961823,276.465363 
	C332.131744,278.068176 334.549957,279.868164 333.926453,283.431183 
	C333.165741,287.778442 330.050842,290.231140 325.954651,290.845215 
	C322.534729,291.357849 318.940460,291.304138 315.493378,290.901764 
	C310.083832,290.270325 307.651886,285.186890 310.020447,280.435944 
	C310.515839,279.442291 310.365936,278.112976 310.454437,276.933899 
	C310.583160,275.218567 310.669189,273.499756 310.753021,271.781464 
	C310.821686,270.373871 311.294159,268.804810 310.842804,267.582306 
	C307.764954,259.245880 312.534729,253.019302 319.669769,253.914368 
	C322.492432,254.268463 325.537018,254.933426 327.806335,251.231339 
	C329.500397,248.467682 333.388794,249.953293 334.892120,253.554764 
	C333.964386,253.835464 333.024567,254.052185 332.140900,254.408264 
	C331.412689,254.701691 330.751038,255.160263 329.763336,255.711060 
	C331.481537,260.397583 333.679169,265.575989 328.206665,269.041718 
	C325.520233,270.742981 321.912231,270.943390 318.792267,272.027283 
	C317.457062,272.491150 316.302856,273.475952 315.066406,274.224060 
	C316.277740,274.821350 317.454102,275.829590 318.707184,275.936279 
	C322.013123,276.217773 325.352356,276.108032 328.961823,276.465363 
M315.943726,261.388641 
	C313.979858,264.137756 315.771973,265.969025 317.994781,266.341217 
	C320.264496,266.721252 323.035400,266.233582 325.019287,265.117249 
	C325.780518,264.688904 325.696411,260.438690 324.720215,259.755798 
	C323.018524,258.565338 320.332703,258.610809 318.046295,258.535828 
	C317.398285,258.514587 316.705048,259.872742 315.943726,261.388641 
M317.871826,280.996155 
	C316.585419,281.682953 315.299011,282.369751 314.012634,283.056580 
	C314.967285,284.180603 315.701599,285.759521 316.915863,286.347626 
	C321.484924,288.560760 326.171417,286.982483 329.643402,281.443939 
	C325.575317,281.275848 322.173706,281.135315 317.871826,280.996155 
z"/>
<path fill="#FEFDEA" opacity="1.000000" stroke="none" 
	d="
M407.120361,280.965698 
	C404.014587,280.642944 401.317047,280.230804 398.604553,280.066620 
	C396.152191,279.918243 393.651825,280.291870 391.229004,279.987152 
	C387.201508,279.480560 385.349731,276.216522 386.270111,273.000641 
	C387.030457,270.343903 389.646393,267.609619 392.163666,266.226501 
	C394.975891,264.681305 398.604248,264.621460 403.511139,263.562653 
	C401.434448,261.246735 400.286469,258.817078 398.808990,258.596771 
	C396.756317,258.290649 393.845642,259.028839 392.424683,260.445679 
	C390.823730,262.041992 390.145264,264.158722 387.627380,262.036621 
	C384.634644,259.514374 387.555054,258.170807 388.873932,256.683441 
	C392.670258,252.402191 398.078827,253.293259 402.267609,254.441116 
	C405.899109,255.436264 408.525360,259.466614 408.022430,264.269501 
	C407.764465,266.732727 407.710541,269.284912 408.067352,271.723267 
	C408.345184,273.621521 409.400604,275.406006 410.110443,277.241028 
	C410.751160,277.457397 411.391876,277.673767 412.032623,277.890137 
	C410.529114,278.921509 409.025604,279.952881 407.120361,280.965698 
M392.075867,275.522736 
	C399.742920,276.757751 400.918457,276.088165 402.924255,269.066040 
	C400.638062,269.385254 398.225433,269.193756 396.387329,270.130035 
	C394.611755,271.034454 393.428406,273.101471 392.075867,275.522736 
z"/>
<path fill="#FEFDEA" opacity="1.000000" stroke="none" 
	d="
M271.670959,256.310608 
	C272.662262,259.679138 273.668396,262.769928 273.899750,265.917694 
	C274.227173,270.372589 273.982788,274.869537 273.982788,279.710968 
	C272.388611,279.828308 270.990204,279.931244 269.006409,280.077240 
	C269.006409,275.384491 269.084869,270.937683 268.982605,266.495026 
	C268.893982,262.643707 268.394104,258.700928 263.592224,258.074768 
	C259.491364,257.540039 256.347565,261.190460 256.005646,266.383331 
	C255.863739,268.539001 255.980438,270.711731 255.980057,272.876709 
	C255.979675,275.029694 255.979950,277.182648 255.979950,279.297119 
	C250.391144,280.424835 249.415512,279.270966 250.352280,274.132446 
	C250.823471,271.547729 249.980988,268.751282 250.022812,266.055084 
	C250.131546,259.044037 250.290070,252.028610 250.725220,245.033386 
	C250.790680,243.980942 252.447968,243.027512 253.368912,242.028275 
	C254.239059,243.149597 255.720596,244.200272 255.859894,245.406021 
	C256.217499,248.501541 255.979355,251.665894 255.979355,253.466965 
	C261.527802,254.403015 266.433838,255.230682 271.670959,256.310608 
z"/>
<path fill="#FEFDEA" opacity="1.000000" stroke="none" 
	d="
M295.608063,280.981934 
	C287.669495,280.961823 282.882843,278.237762 281.028107,272.937347 
	C278.751221,266.430542 280.217834,260.447083 285.342255,256.213654 
	C289.288635,252.953400 293.885223,253.265915 298.252747,254.891800 
	C302.793030,256.581970 304.828735,260.323212 305.018921,265.163025 
	C305.127045,267.913330 304.098175,269.160736 301.268555,269.012329 
	C298.782196,268.881927 296.283417,268.989563 293.790100,268.990601 
	C291.309326,268.991638 288.828552,268.990845 285.318970,270.069214 
	C286.792328,271.790741 287.965454,274.366455 289.815369,275.016724 
	C292.106049,275.821899 295.282349,275.736053 297.475250,274.728088 
	C299.623932,273.740387 301.522308,271.676880 303.219299,274.215271 
	C303.693756,274.924957 301.412964,277.840149 299.971802,279.334381 
	C299.066315,280.273254 297.371002,280.450378 295.608063,280.981934 
M287.018768,261.719879 
	C286.834534,262.447845 286.650330,263.175812 286.502075,263.761597 
	C290.677582,263.761597 294.759033,263.761597 298.878632,263.761597 
	C297.559967,257.222534 293.095428,256.258972 287.018768,261.719879 
z"/>
<path fill="#FEFDEC" opacity="1.000000" stroke="none" 
	d="
M378.037720,278.105255 
	C377.594177,278.403229 377.150665,278.701202 376.053284,279.008728 
	C374.611572,279.381714 373.823730,279.745178 373.035889,280.108612 
	C368.123413,281.705078 361.885773,280.231842 359.442444,276.898071 
	C355.156616,271.050293 354.858246,263.926910 358.687012,258.863800 
	C362.165344,254.264038 368.705048,252.459427 374.091003,254.613098 
	C379.884552,256.929779 381.292816,259.834076 380.758820,269.075073 
	C374.798279,269.075073 368.782410,269.075073 361.036743,269.075073 
	C363.446808,272.158112 364.910126,274.030090 366.972046,276.280579 
	C369.368164,276.402588 371.165710,276.146057 372.963226,275.889526 
	C373.746704,275.316559 374.530151,274.743622 375.979095,274.142334 
	C377.108948,275.444427 377.573334,276.774841 378.037720,278.105255 
M370.154175,258.011719 
	C366.524994,258.325256 363.359711,259.168732 362.940826,263.919342 
	C367.496368,263.919342 371.470306,263.919342 376.883575,263.919342 
	C374.383453,261.590424 372.632477,259.959381 370.154175,258.011719 
z"/>
<path fill="#FEFDEC" opacity="1.000000" stroke="none" 
	d="
M167.012741,257.834778 
	C165.709091,258.676910 164.405457,259.519043 162.549988,260.677704 
	C160.633698,261.008087 159.269272,261.021942 157.904831,261.035828 
	C158.373535,259.753235 158.842239,258.470612 159.852875,256.977417 
	C160.582153,256.490784 160.769485,256.214752 160.956818,255.938721 
	C160.956802,255.938721 160.999146,255.997894 161.186859,255.910110 
	C161.653214,255.676544 161.860718,255.461975 161.997086,255.178604 
	C161.997086,255.178604 162.437546,255.013580 163.128021,255.002151 
	C167.912750,255.314835 172.006989,255.638962 176.101242,255.963074 
	C180.782761,259.364563 178.555511,264.352875 178.934586,268.699585 
	C179.240509,272.207428 177.863480,276.299011 183.390335,277.148560 
	C181.517883,280.932281 179.482101,281.879364 176.048874,280.098083 
	C174.756439,279.427551 172.836243,279.961426 171.202209,279.956085 
	C167.761505,279.944824 164.087204,280.662140 160.970245,279.653870 
	C159.184784,279.076263 157.319595,275.733582 157.243408,273.573944 
	C157.122375,270.143158 159.058990,267.091400 162.896072,266.124023 
	C164.762024,265.653595 166.670639,265.342438 168.569427,265.014130 
	C174.139725,264.050934 174.269150,263.816559 171.181458,258.781128 
	C170.505341,258.219147 170.235229,258.086853 169.919037,258.048615 
	C169.919037,258.048615 169.990784,258.019440 169.824875,257.793213 
	C168.776886,257.656281 167.894821,257.745514 167.012741,257.834778 
M163.579269,275.057617 
	C168.860016,276.925629 171.962967,276.098511 173.277756,272.205597 
	C173.559006,271.372864 173.035934,269.571716 172.371994,269.239838 
	C169.807983,267.958282 163.877457,271.414215 163.579269,275.057617 
z"/>
<path fill="#FEFDEC" opacity="1.000000" stroke="none" 
	d="
M199.013412,257.825195 
	C194.264191,259.745514 192.533127,263.280243 192.934677,268.314728 
	C193.235504,272.086334 192.994064,275.901215 192.994064,279.639954 
	C188.715363,280.647552 186.623932,279.706085 186.962128,275.149750 
	C187.485458,268.099304 187.772736,261.026825 187.954330,253.958374 
	C188.007156,251.902008 187.298126,249.834946 187.046417,247.759689 
	C186.719482,245.064255 187.262100,242.450302 190.365692,242.293488 
	C191.161911,242.253281 192.592331,245.175049 192.878799,246.879333 
	C193.310226,249.446152 192.991211,252.139114 192.991211,253.432236 
	C198.148712,254.302460 202.719833,255.073730 207.744598,256.187927 
	C208.357681,256.743469 208.562119,256.895813 208.811523,256.987823 
	C208.811523,256.987823 208.982346,257.430511 209.075287,257.885498 
	C209.307617,258.625885 209.519058,258.840210 209.802567,258.983429 
	C209.802567,258.983429 209.975433,259.446594 209.994308,260.162689 
	C210.013184,266.458221 210.013184,272.037689 210.013184,277.617126 
	C209.189377,277.616852 208.365585,277.616547 207.541779,277.616241 
	C207.361588,274.669922 207.358719,271.698395 206.944641,268.785339 
	C206.618393,266.490082 205.785507,264.266876 205.177643,262.011658 
	C205.177643,262.011658 205.015442,261.575653 204.887970,261.104309 
	C204.480362,260.438080 204.200241,260.243164 203.920135,260.048218 
	C203.920135,260.048218 203.991882,260.009644 203.873535,259.811157 
	C203.480789,259.424530 203.206406,259.236389 202.932007,259.048218 
	C202.932007,259.048218 202.998672,259.005737 202.876633,258.805603 
	C202.480682,258.419617 202.206772,258.233704 201.932877,258.047821 
	C201.932877,258.047821 201.998367,258.007446 201.824554,257.781799 
	C200.771637,257.645844 199.892517,257.735504 199.013412,257.825195 
z"/>
<path fill="#FEFDEC" opacity="1.000000" stroke="none" 
	d="
M231.005157,252.038101 
	C231.057037,247.947845 233.005966,246.602997 236.796692,247.166901 
	C236.902512,249.221680 237.010834,251.325119 237.140091,253.835266 
	C239.871628,253.835266 242.617264,253.835266 245.706192,253.835266 
	C245.823364,255.609756 245.915421,257.003937 246.034882,258.813232 
	C243.035202,258.813232 240.286530,258.813232 236.997787,258.813232 
	C236.997787,263.457672 236.721237,267.746613 237.095871,271.977905 
	C237.341980,274.757416 238.621796,277.026367 242.381500,275.411194 
	C243.214325,275.053406 244.733200,276.292633 245.936172,276.796478 
	C245.341400,277.850159 244.835663,279.738892 244.136505,279.813477 
	C241.057892,280.141724 237.442703,280.897583 234.960175,279.642578 
	C232.945450,278.624084 231.539658,275.068756 231.160385,272.450684 
	C230.546219,268.211273 230.995026,263.817841 230.995026,260.602570 
	C228.885773,258.838165 227.461792,257.647034 226.037827,256.455902 
	C227.533966,255.570358 229.059555,254.728912 230.503189,253.764740 
	C230.819153,253.553711 230.842941,252.905243 231.005157,252.038101 
z"/>
<path fill="#FEFDEC" opacity="1.000000" stroke="none" 
	d="
M417.216492,248.562820 
	C418.589203,247.740891 419.791595,247.312012 421.444641,246.722397 
	C422.139587,249.165543 422.773102,251.392685 423.517853,254.010895 
	C425.704681,254.010895 428.140442,254.010895 430.771423,254.010895 
	C430.771423,255.768250 430.771423,257.164764 430.771423,258.523346 
	C430.351868,258.703613 430.073792,258.873169 429.772369,258.944763 
	C427.218689,259.551392 422.505707,260.000671 422.456726,260.757202 
	C422.157074,265.385040 422.780121,270.102966 423.525818,274.721466 
	C423.601166,275.187988 426.561462,275.106750 428.150299,275.436920 
	C429.411835,275.699036 430.623413,276.201599 431.857178,276.597351 
	C431.195221,277.717468 430.802704,279.402710 429.828278,279.867249 
	C422.759766,283.237091 417.011230,279.566742 417.006653,271.863983 
	C417.004211,267.738892 417.006226,263.613831 417.006226,259.099731 
	C415.342682,259.099731 413.946716,259.099731 412.287750,259.099731 
	C412.287750,257.315918 412.287750,255.919006 412.287750,254.194519 
	C413.683685,254.091461 415.104126,253.986618 417.046173,253.843262 
	C417.046173,252.159119 417.046173,250.557510 417.216492,248.562820 
z"/>
<path fill="#FEFEE4" opacity="1.000000" stroke="none" 
	d="
M343.976807,269.088623 
	C343.980194,271.386444 343.971802,273.216095 343.989441,275.045502 
	C344.026611,278.902222 342.591125,280.938446 338.016418,279.552185 
	C338.016418,272.154388 337.901306,264.694092 338.142059,257.245300 
	C338.177673,256.142639 340.544006,254.052826 340.738403,254.173996 
	C345.022156,256.844635 349.296265,252.204773 353.956268,254.698792 
	C353.785034,256.688538 354.985565,259.036407 350.267700,258.486542 
	C346.017120,257.991150 344.007996,261.923340 343.976807,269.088623 
z"/>
<path fill="#FEFDEC" opacity="1.000000" stroke="none" 
	d="
M122.996284,270.955688 
	C123.000229,274.093079 123.000229,276.738220 123.000229,279.756256 
	C121.030571,279.846802 119.299561,279.926361 117.018402,280.031219 
	C117.018402,271.834686 116.887848,263.889343 117.159515,255.957825 
	C117.200150,254.771484 119.127663,253.649765 120.756660,251.870972 
	C124.514381,258.471375 122.360802,264.647217 122.996284,270.955688 
z"/>
<path fill="#FEFDF8" opacity="1.000000" stroke="none" 
	d="
M147.885651,262.044952 
	C144.951538,260.126709 142.780151,256.210266 138.204727,258.923492 
	C134.418228,261.168884 132.372589,264.246460 133.101624,268.586243 
	C133.377197,270.226776 134.811783,271.672577 135.969452,273.795868 
	C136.505142,274.578156 136.789429,274.771729 137.073730,274.965302 
	C137.073730,274.965302 137.006104,274.996887 137.001740,275.345459 
	C135.976685,276.478394 134.955978,277.262787 133.935287,278.047211 
	C133.935287,278.047211 133.999207,278.011047 133.860794,277.789917 
	C133.210861,277.364899 132.699356,277.161011 132.187836,276.957092 
	C131.173737,275.523438 130.159637,274.089783 129.402283,272.032898 
	C129.416046,269.254639 129.173065,267.099548 128.930084,264.944458 
	C128.962830,264.518890 128.995590,264.093292 129.451813,263.339783 
	C134.158600,262.781799 131.544479,259.736786 131.951462,257.924744 
	C131.951462,257.924744 131.993835,257.994385 132.323914,257.985474 
	C133.455383,257.051025 134.256760,256.125549 135.058136,255.200043 
	C135.058121,255.200027 135.467377,255.034317 136.152191,255.018341 
	C140.256744,254.993088 143.676468,254.983780 147.096191,254.974487 
	C147.096191,254.974487 147.550476,255.033279 147.894897,255.303741 
	C148.461502,255.806442 148.732788,255.935226 149.053192,255.960541 
	C149.053192,255.960541 149.001221,255.998779 149.111359,256.208496 
	C149.499817,256.600250 149.778137,256.782318 150.056458,256.964417 
	C150.056458,256.964417 150.001114,256.998291 150.109253,257.206665 
	C150.492355,257.597534 150.767334,257.780060 151.042297,257.962616 
	C151.042297,257.962616 151.000000,258.000000 151.075195,258.202026 
	C151.293030,258.688751 151.508133,258.899536 151.795731,259.036377 
	C151.795731,259.036377 151.964905,259.464905 151.983124,259.973755 
	C152.013412,260.669403 152.025497,260.856232 152.037567,261.043060 
	C152.037567,261.043060 151.998779,261.001343 151.784164,261.111328 
	C151.391769,261.499359 151.213989,261.777405 151.036224,262.055481 
	C151.036224,262.055481 151.001556,262.000427 150.631622,262.001007 
	C149.469666,262.016052 148.677658,262.030518 147.885651,262.044952 
z"/>
<path fill="#FEFEE4" opacity="1.000000" stroke="none" 
	d="
M134.083893,278.400238 
	C134.955978,277.262787 135.976685,276.478394 137.022614,275.314514 
	C142.876358,277.335052 144.935440,276.660065 148.909958,270.911011 
	C150.268860,271.700470 151.641815,272.498077 152.996796,273.285248 
	C149.097488,281.590485 140.384918,282.969055 134.083893,278.400238 
z"/>
<path fill="#FEFEE4" opacity="1.000000" stroke="none" 
	d="
M220.365524,273.273712 
	C222.426941,274.244049 224.156967,275.428070 225.886993,276.612091 
	C224.907669,277.928345 224.172211,279.895111 222.880951,280.379211 
	C221.570663,280.870422 219.161072,280.439758 218.198685,279.462128 
	C215.567581,276.789398 217.601929,274.943604 220.365524,273.273712 
z"/>
<path fill="#FEFEE4" opacity="1.000000" stroke="none" 
	d="
M122.789749,244.530930 
	C122.993599,250.315018 121.522194,252.397751 118.747765,250.682434 
	C117.364944,249.827499 115.927856,246.914566 116.405701,245.642883 
	C117.398132,243.001694 119.828819,241.644882 122.789749,244.530930 
z"/>
<path fill="#FEFDEA" opacity="1.000000" stroke="none" 
	d="
M205.102509,262.435120 
	C205.785507,264.266876 206.618393,266.490082 206.944641,268.785339 
	C207.358719,271.698395 207.361588,274.669922 207.541779,277.616241 
	C208.365585,277.616547 209.189377,277.616852 210.013184,277.617126 
	C210.013184,272.037689 210.013184,266.458221 210.027344,260.407654 
	C210.494873,266.397003 210.948242,272.857452 211.427734,279.689911 
	C209.388718,279.830994 207.994354,279.927490 206.565094,280.026367 
	C206.039993,274.163910 205.533691,268.511230 205.102509,262.435120 
z"/>
<path fill="#FEFEE4" opacity="1.000000" stroke="none" 
	d="
M175.913071,255.606293 
	C172.006989,255.638962 167.912750,255.314835 163.361877,254.977264 
	C167.178482,255.059052 171.451691,255.154282 175.913071,255.606293 
z"/>
<path fill="#FEFEE4" opacity="1.000000" stroke="none" 
	d="
M146.890244,254.597046 
	C143.676468,254.983780 140.256744,254.993088 136.370956,254.988647 
	C139.498032,254.723160 143.091156,254.471390 146.890244,254.597046 
z"/>
<path fill="#FEFEE4" opacity="1.000000" stroke="none" 
	d="
M131.626419,258.050018 
	C131.544479,259.736786 134.158600,262.781799 129.532516,263.029633 
	C129.893631,261.423401 130.597504,259.799347 131.626419,258.050018 
z"/>
<path fill="#FEFEE4" opacity="1.000000" stroke="none" 
	d="
M128.581360,265.114197 
	C129.173065,267.099548 129.416046,269.254639 129.412079,271.694885 
	C128.854294,269.748047 128.543457,267.515991 128.581360,265.114197 
z"/>
<path fill="#FEFEE4" opacity="1.000000" stroke="none" 
	d="
M378.371643,277.961273 
	C377.573334,276.774841 377.108948,275.444427 376.274780,274.039673 
	C377.098053,273.982849 378.291046,274.000397 379.484070,274.017914 
	C379.224548,275.284363 378.965057,276.550842 378.371643,277.961273 
z"/>
<path fill="#FEFEE4" opacity="1.000000" stroke="none" 
	d="
M158.043701,261.353027 
	C159.269272,261.021942 160.633698,261.008087 162.407318,260.989807 
	C161.775558,264.621979 159.796432,261.910431 158.043701,261.353027 
z"/>
<path fill="#FEFEE4" opacity="1.000000" stroke="none" 
	d="
M372.541046,275.944214 
	C371.165710,276.146057 369.368164,276.402588 367.295471,276.418762 
	C368.719788,276.118591 370.419342,276.058716 372.541046,275.944214 
z"/>
<path fill="#FEFEE4" opacity="1.000000" stroke="none" 
	d="
M134.738861,255.166336 
	C134.256760,256.125549 133.455383,257.051025 132.289200,257.964111 
	C132.756119,257.012024 133.587845,256.072327 134.738861,255.166336 
z"/>
<path fill="#FEFEE4" opacity="1.000000" stroke="none" 
	d="
M167.376953,257.907471 
	C167.894821,257.745514 168.776886,257.656281 169.811752,257.829651 
	C169.223404,258.054932 168.482285,258.017578 167.376953,257.907471 
z"/>
<path fill="#FEFEE4" opacity="1.000000" stroke="none" 
	d="
M373.385864,280.053833 
	C373.823730,279.745178 374.611572,279.381714 375.752014,279.027832 
	C375.315002,279.357971 374.525421,279.678528 373.385864,280.053833 
z"/>
<path fill="#FEFEE4" opacity="1.000000" stroke="none" 
	d="
M148.026306,262.362579 
	C148.677658,262.030518 149.469666,262.016052 150.657272,262.021057 
	C150.090897,262.253754 149.128922,262.466980 148.026306,262.362579 
z"/>
<path fill="#FEFDEA" opacity="1.000000" stroke="none" 
	d="
M199.376617,257.899506 
	C199.892517,257.735504 200.771637,257.645844 201.804932,257.814911 
	C201.219345,258.040375 200.479584,258.007111 199.376617,257.899506 
z"/>
<path fill="#FEFEE4" opacity="1.000000" stroke="none" 
	d="
M132.168793,277.278564 
	C132.699356,277.161011 133.210861,277.364899 133.846008,277.823547 
	C133.363007,277.918854 132.756363,277.759460 132.168793,277.278564 
z"/>
<path fill="#FEFEE4" opacity="1.000000" stroke="none" 
	d="
M161.734650,255.127625 
	C161.860718,255.461975 161.653214,255.676544 161.157593,255.888519 
	C161.117828,255.662018 161.295029,255.369324 161.734650,255.127625 
z"/>
<path fill="#FEFEE4" opacity="1.000000" stroke="none" 
	d="
M150.982559,257.704773 
	C150.767334,257.780060 150.492355,257.597534 150.126129,257.178925 
	C150.330841,257.110901 150.626831,257.278931 150.982559,257.704773 
z"/>
<path fill="#FEFEE4" opacity="1.000000" stroke="none" 
	d="
M148.983185,255.698242 
	C148.732788,255.935226 148.461502,255.806442 148.109070,255.384918 
	C148.290283,255.275711 148.601730,255.355820 148.983185,255.698242 
z"/>
<path fill="#FEFEE4" opacity="1.000000" stroke="none" 
	d="
M137.001587,274.703491 
	C136.789429,274.771729 136.505142,274.578156 136.123428,274.140137 
	C136.327148,274.077667 136.628296,274.259674 137.001587,274.703491 
z"/>
<path fill="#FEFEE4" opacity="1.000000" stroke="none" 
	d="
M151.857941,258.772522 
	C151.508133,258.899536 151.293030,258.688751 151.095444,258.181824 
	C151.333710,258.142609 151.626923,258.325623 151.857941,258.772522 
z"/>
<path fill="#FEFEE4" opacity="1.000000" stroke="none" 
	d="
M152.301239,260.975952 
	C152.025497,260.856232 152.013412,260.669403 152.014542,260.201965 
	C152.206802,260.250519 152.385864,260.579681 152.301239,260.975952 
z"/>
<path fill="#FEFEE4" opacity="1.000000" stroke="none" 
	d="
M169.995422,258.304688 
	C170.235229,258.086853 170.505341,258.219147 170.859253,258.634247 
	C170.683350,258.735596 170.377594,258.648193 169.995422,258.304688 
z"/>
<path fill="#FEFEE4" opacity="1.000000" stroke="none" 
	d="
M149.990845,256.707092 
	C149.778137,256.782318 149.499817,256.600250 149.128128,256.180908 
	C149.331589,256.112366 149.628403,256.281067 149.990845,256.707092 
z"/>
<path fill="#FEFDEA" opacity="1.000000" stroke="none" 
	d="
M202.005920,258.299774 
	C202.206772,258.233704 202.480682,258.419617 202.854034,258.838074 
	C202.661987,258.897644 202.370483,258.724670 202.005920,258.299774 
z"/>
<path fill="#FEFDEA" opacity="1.000000" stroke="none" 
	d="
M209.851379,258.722748 
	C209.519058,258.840210 209.307617,258.625885 209.101639,258.121277 
	C209.323425,258.088776 209.611816,258.275421 209.851379,258.722748 
z"/>
<path fill="#FEFEE4" opacity="1.000000" stroke="none" 
	d="
M160.703903,256.012726 
	C160.769485,256.214752 160.582153,256.490784 160.159958,256.865326 
	C160.100403,256.671478 160.275696,256.379089 160.703903,256.012726 
z"/>
<path fill="#FEFDEA" opacity="1.000000" stroke="none" 
	d="
M208.860321,256.728577 
	C208.562119,256.895813 208.357681,256.743469 208.108200,256.359741 
	C208.315170,256.282227 208.612152,256.375763 208.860321,256.728577 
z"/>
<path fill="#FEFEE4" opacity="1.000000" stroke="none" 
	d="
M151.291626,261.989685 
	C151.213989,261.777405 151.391769,261.499359 151.805145,261.129547 
	C151.876175,261.333160 151.711609,261.628540 151.291626,261.989685 
z"/>
<path fill="#FEFDEA" opacity="1.000000" stroke="none" 
	d="
M203.001099,259.303711 
	C203.206406,259.236389 203.480789,259.424530 203.854126,259.846985 
	C203.658783,259.907257 203.364471,259.733215 203.001099,259.303711 
z"/>
<path fill="#FEFDEA" opacity="1.000000" stroke="none" 
	d="
M203.996262,260.305908 
	C204.200241,260.243164 204.480362,260.438080 204.862122,260.873169 
	C204.666641,260.930115 204.369522,260.746857 203.996262,260.305908 
z"/>
<path fill="#000000" opacity="1.000000" stroke="none" 
	d="
M315.988129,260.993469 
	C316.705048,259.872742 317.398285,258.514587 318.046295,258.535828 
	C320.332703,258.610809 323.018524,258.565338 324.720215,259.755798 
	C325.696411,260.438690 325.780518,264.688904 325.019287,265.117249 
	C323.035400,266.233582 320.264496,266.721252 317.994781,266.341217 
	C315.771973,265.969025 313.979858,264.137756 315.988129,260.993469 
z"/>
<path fill="#000000" opacity="1.000000" stroke="none" 
	d="
M318.321960,280.995483 
	C322.173706,281.135315 325.575317,281.275848 329.643402,281.443939 
	C326.171417,286.982483 321.484924,288.560760 316.915863,286.347626 
	C315.701599,285.759521 314.967285,284.180603 314.012634,283.056580 
	C315.299011,282.369751 316.585419,281.682953 318.321960,280.995483 
z"/>
<path fill="#000000" opacity="1.000000" stroke="none" 
	d="
M392.030396,275.090271 
	C393.428406,273.101471 394.611755,271.034454 396.387329,270.130035 
	C398.225433,269.193756 400.638062,269.385254 402.924255,269.066040 
	C400.918457,276.088165 399.742920,276.757751 392.030396,275.090271 
z"/>
<path fill="#000000" opacity="1.000000" stroke="none" 
	d="
M287.222351,261.383087 
	C293.095428,256.258972 297.559967,257.222534 298.878632,263.761597 
	C294.759033,263.761597 290.677582,263.761597 286.502075,263.761597 
	C286.650330,263.175812 286.834534,262.447845 287.222351,261.383087 
z"/>
<path fill="#000000" opacity="1.000000" stroke="none" 
	d="
M370.517822,258.170044 
	C372.632477,259.959381 374.383453,261.590424 376.883575,263.919342 
	C371.470306,263.919342 367.496368,263.919342 362.940826,263.919342 
	C363.359711,259.168732 366.524994,258.325256 370.517822,258.170044 
z"/>
<path fill="#000000" opacity="1.000000" stroke="none" 
	d="
M163.313934,274.740234 
	C163.877457,271.414215 169.807983,267.958282 172.371994,269.239838 
	C173.035934,269.571716 173.559006,271.372864 173.277756,272.205597 
	C171.962967,276.098511 168.860016,276.925629 163.313934,274.740234 
z"/>
</svg>